<svg width="232" height="161" viewBox="0 0 232 161" fill="none" xmlns="http://www.w3.org/2000/svg">
<g filter="url(#filter0_b_2556_142076)">
<path d="M227.426 41.8787C217.276 22.5191 186.101 10.9169 159.639 18.6063C128.555 27.6226 140.019 63.2457 112.061 70.6969C97.2442 74.6437 75.3585 59.9454 60.4055 57.6658C32.8559 53.5149 7.93425 68.1111 1.77181 88.3554C-4.48124 108.974 5.57802 136.533 35.7558 142.147C71.7336 148.816 90.4474 124.557 120.58 117.582C151.528 110.437 185.965 127.313 211.566 106.762C230.507 91.5536 237.44 61.0682 227.426 41.8787Z" fill="#EDF0F2"/>
</g>
<path opacity="0.1" d="M180.968 99.4289C180.968 91.3385 175.16 84.6079 167.486 83.2141V29.8446C167.486 27.975 165.957 26.4453 164.09 26.4453H67.9158C66.048 26.4453 64.5199 27.975 64.5199 29.8446V83.2141C56.845 84.6419 51.0379 91.3725 51.0379 99.4289C51.0379 107.757 57.1846 114.624 65.1651 115.78C65.9801 119.961 67.4743 123.802 69.478 127.269H67.5083C58.4071 127.269 51.0039 134.646 51.0039 143.79C51.0039 152.9 58.3732 160.311 67.5083 160.311H164.429C173.53 160.311 180.934 152.934 180.934 143.79C180.934 134.68 173.564 127.269 164.429 127.269H162.46C164.463 123.802 165.957 119.961 166.772 115.78C174.821 114.624 180.968 107.757 180.968 99.4289Z" fill="#25A4AD"/>
<path opacity="0.2" d="M167.485 21.6845V100.515C167.485 134.44 123.643 147.494 116.885 149.295C116.308 149.465 115.731 149.465 115.153 149.295C108.395 147.494 64.5195 134.474 64.5195 100.515V21.6845C64.5195 19.8149 66.0477 18.2852 67.9155 18.2852H164.089C165.991 18.2852 167.485 19.8149 167.485 21.6845Z" fill="#25A4AD"/>
<path opacity="0.2" d="M164.123 115.948C166.229 111.359 167.485 106.26 167.485 100.515V83.1782C166.5 83.0082 165.482 82.9062 164.463 82.9062H67.5419C66.5232 82.9062 65.5044 83.0082 64.5195 83.1782V100.515C64.5195 106.226 65.776 111.359 67.8815 115.948H164.123Z" fill="#25A4AD"/>
<path d="M160.693 25.082V100.513C160.693 128.252 124.085 140.183 116.002 142.461C112.335 141.407 102.792 138.382 93.453 132.773C78.7485 123.935 71.2773 113.091 71.2773 100.479V25.082H160.693Z" fill="#DDF2ED"/>
<path opacity="0.2" d="M151.863 25.082V65.5341C151.863 66.4859 151.116 67.2337 150.165 67.2337H81.8386C80.8877 67.2337 80.1406 66.4859 80.1406 65.5341V25.082H151.863Z" fill="#25A4AD"/>
<g filter="url(#filter1_b_2556_142076)">
<path d="M51.0371 135.599C51.0371 144.709 58.4064 152.12 67.5415 152.12H164.462C173.564 152.12 180.967 144.743 180.967 135.599C180.967 126.489 173.598 119.078 164.462 119.078H67.5415C58.4403 119.112 51.0371 126.489 51.0371 135.599Z" fill="#EDFAED" fill-opacity="0.5"/>
</g>
<mask id="path-8-inside-1_2556_142076" fill="white">
<path fill-rule="evenodd" clip-rule="evenodd" d="M75.3541 141.239C72.2298 141.239 69.7168 138.723 69.7168 135.596C69.7168 132.469 72.2298 129.953 75.3541 129.953C77.8986 129.953 80.0376 131.622 80.7439 133.93H84.3194H89.0059C89.9568 133.93 90.7039 134.678 90.7039 135.63V139.233C90.7039 140.151 89.9568 140.933 89.0059 140.933C88.055 140.933 87.3079 140.185 87.3079 139.233V137.33H86.0174V139.233C86.0174 140.151 85.2364 140.933 84.3194 140.933C83.3686 140.933 82.6215 140.185 82.6215 139.233V137.33H80.7227C79.9956 139.603 77.8736 141.239 75.3541 141.239ZM75.3541 133.352C74.1316 133.352 73.1128 134.372 73.1128 135.596C73.1128 136.82 74.1316 137.84 75.3541 137.84C76.5766 137.84 77.5954 136.82 77.5954 135.596C77.5954 134.372 76.6106 133.352 75.3541 133.352Z"/>
</mask>
<path fill-rule="evenodd" clip-rule="evenodd" d="M75.3541 141.239C72.2298 141.239 69.7168 138.723 69.7168 135.596C69.7168 132.469 72.2298 129.953 75.3541 129.953C77.8986 129.953 80.0376 131.622 80.7439 133.93H84.3194H89.0059C89.9568 133.93 90.7039 134.678 90.7039 135.63V139.233C90.7039 140.151 89.9568 140.933 89.0059 140.933C88.055 140.933 87.3079 140.185 87.3079 139.233V137.33H86.0174V139.233C86.0174 140.151 85.2364 140.933 84.3194 140.933C83.3686 140.933 82.6215 140.185 82.6215 139.233V137.33H80.7227C79.9956 139.603 77.8736 141.239 75.3541 141.239ZM75.3541 133.352C74.1316 133.352 73.1128 134.372 73.1128 135.596C73.1128 136.82 74.1316 137.84 75.3541 137.84C76.5766 137.84 77.5954 136.82 77.5954 135.596C77.5954 134.372 76.6106 133.352 75.3541 133.352Z" fill="#25A4AD"/>
<path d="M80.7439 133.93L79.9789 134.164L80.152 134.73H80.7439V133.93ZM87.3079 137.33H88.1079V136.53H87.3079V137.33ZM86.0174 137.33V136.53H85.2174V137.33H86.0174ZM82.6215 137.33H83.4215V136.53H82.6215V137.33ZM80.7227 137.33V136.53H80.1387L79.9607 137.086L80.7227 137.33ZM68.9168 135.596C68.9168 139.164 71.7872 142.039 75.3541 142.039V140.439C72.6724 140.439 70.5168 138.282 70.5168 135.596H68.9168ZM75.3541 129.153C71.7872 129.153 68.9168 132.028 68.9168 135.596H70.5168C70.5168 132.91 72.6724 130.753 75.3541 130.753V129.153ZM81.5089 133.696C80.7022 131.059 78.2588 129.153 75.3541 129.153V130.753C77.5383 130.753 79.3729 132.184 79.9789 134.164L81.5089 133.696ZM84.3194 133.13H80.7439V134.73H84.3194V133.13ZM89.0059 133.13H84.3194V134.73H89.0059V133.13ZM91.5039 135.63C91.5039 134.237 90.3993 133.13 89.0059 133.13V134.73C89.5142 134.73 89.9039 135.119 89.9039 135.63H91.5039ZM91.5039 139.233V135.63H89.9039V139.233H91.5039ZM89.0059 141.733C90.4097 141.733 91.5039 140.582 91.5039 139.233H89.9039C89.9039 139.72 89.5038 140.133 89.0059 140.133V141.733ZM86.5079 139.233C86.5079 140.626 87.6125 141.733 89.0059 141.733V140.133C88.4976 140.133 88.1079 139.744 88.1079 139.233H86.5079ZM86.5079 137.33V139.233H88.1079V137.33H86.5079ZM86.0174 138.13H87.3079V136.53H86.0174V138.13ZM85.2174 137.33V139.233H86.8174V137.33H85.2174ZM85.2174 139.233C85.2174 139.71 84.7938 140.133 84.3194 140.133V141.733C85.6789 141.733 86.8174 140.592 86.8174 139.233H85.2174ZM84.3194 140.133C83.8111 140.133 83.4215 139.744 83.4215 139.233H81.8215C81.8215 140.626 82.926 141.733 84.3194 141.733V140.133ZM83.4215 139.233V137.33H81.8215V139.233H83.4215ZM80.7227 138.13H82.6215V136.53H80.7227V138.13ZM75.3541 142.039C78.2303 142.039 80.6543 140.17 81.4847 137.573L79.9607 137.086C79.337 139.036 77.517 140.439 75.3541 140.439V142.039ZM73.9128 135.596C73.9128 134.813 74.5741 134.152 75.3541 134.152V132.552C73.689 132.552 72.3128 133.931 72.3128 135.596H73.9128ZM75.3541 137.04C74.5741 137.04 73.9128 136.379 73.9128 135.596H72.3128C72.3128 137.261 73.689 138.64 75.3541 138.64V137.04ZM76.7954 135.596C76.7954 136.379 76.1341 137.04 75.3541 137.04V138.64C77.0192 138.64 78.3954 137.261 78.3954 135.596H76.7954ZM75.3541 134.152C76.1602 134.152 76.7954 134.805 76.7954 135.596H78.3954C78.3954 133.939 77.0611 132.552 75.3541 132.552V134.152Z" fill="#DDF2ED" mask="url(#path-8-inside-1_2556_142076)"/>
<path d="M100.448 137.67C99.4971 137.67 98.75 136.922 98.75 135.97V132.231C98.75 131.279 99.4971 130.531 100.448 130.531C101.399 130.531 102.146 131.279 102.146 132.231V135.97C102.146 136.922 101.399 137.67 100.448 137.67Z" fill="white"/>
<path d="M100.447 137.671C100.278 137.671 100.108 137.637 99.9381 137.603L96.4063 136.447C95.5233 136.142 95.0139 135.19 95.3196 134.306C95.6252 133.422 96.5761 132.912 97.459 133.218L100.991 134.374C101.874 134.68 102.383 135.632 102.078 136.515C101.84 137.229 101.161 137.671 100.447 137.671Z" fill="white"/>
<path d="M100.448 137.67C99.7345 137.67 99.0554 137.228 98.8176 136.48C98.512 135.596 99.0214 134.645 99.9043 134.339L103.436 133.183C104.319 132.877 105.27 133.387 105.576 134.271C105.881 135.155 105.372 136.106 104.489 136.412L100.957 137.568C100.821 137.636 100.617 137.67 100.448 137.67Z" fill="white"/>
<path d="M98.2745 140.695C97.9349 140.695 97.5953 140.593 97.2896 140.355C96.5425 139.812 96.3727 138.724 96.9161 137.976L99.0895 134.95C99.6329 134.203 100.72 134.033 101.467 134.577C102.214 135.12 102.384 136.208 101.84 136.956L99.6668 139.982C99.2933 140.457 98.7839 140.695 98.2745 140.695Z" fill="white"/>
<path d="M102.655 140.695C102.146 140.695 101.602 140.457 101.297 139.982L99.1231 136.956C98.5798 136.208 98.7496 135.12 99.4967 134.577C100.244 134.033 101.331 134.203 101.874 134.95L104.047 137.976C104.591 138.724 104.421 139.812 103.674 140.355C103.334 140.593 102.995 140.695 102.655 140.695Z" fill="white"/>
<path d="M115.593 137.67C114.642 137.67 113.895 136.922 113.895 135.97V132.231C113.895 131.279 114.642 130.531 115.593 130.531C116.543 130.531 117.29 131.279 117.29 132.231V135.97C117.29 136.922 116.543 137.67 115.593 137.67Z" fill="white"/>
<path d="M115.594 137.671C115.424 137.671 115.254 137.637 115.085 137.603L111.553 136.447C110.67 136.142 110.16 135.19 110.466 134.306C110.772 133.422 111.723 132.912 112.606 133.218L116.137 134.374C117.02 134.68 117.53 135.632 117.224 136.515C116.986 137.229 116.307 137.671 115.594 137.671Z" fill="white"/>
<path d="M115.594 137.67C114.881 137.67 114.202 137.228 113.964 136.48C113.658 135.596 114.168 134.645 115.051 134.339L118.583 133.183C119.466 132.877 120.416 133.387 120.722 134.271C121.028 135.155 120.518 136.106 119.635 136.412L116.104 137.568C115.934 137.636 115.764 137.67 115.594 137.67Z" fill="white"/>
<path d="M113.421 140.695C113.081 140.695 112.742 140.593 112.436 140.355C111.689 139.812 111.519 138.724 112.063 137.976L114.236 134.95C114.779 134.203 115.866 134.033 116.613 134.577C117.36 135.12 117.53 136.208 116.987 136.956L114.813 139.982C114.44 140.457 113.93 140.695 113.421 140.695Z" fill="white"/>
<path d="M117.801 140.695C117.292 140.695 116.749 140.457 116.443 139.982L114.27 136.956C113.726 136.208 113.896 135.12 114.643 134.577C115.39 134.033 116.477 134.203 117.02 134.95L119.194 137.976C119.737 138.724 119.567 139.812 118.82 140.355C118.481 140.593 118.141 140.695 117.801 140.695Z" fill="white"/>
<path d="M130.739 137.67C129.788 137.67 129.041 136.922 129.041 135.97V132.231C129.041 131.279 129.788 130.531 130.739 130.531C131.69 130.531 132.437 131.279 132.437 132.231V135.97C132.437 136.922 131.69 137.67 130.739 137.67Z" fill="white"/>
<path d="M130.74 137.671C130.571 137.671 130.401 137.637 130.231 137.603L126.699 136.447C125.816 136.142 125.307 135.19 125.613 134.306C125.918 133.422 126.869 132.912 127.752 133.218L131.284 134.374C132.167 134.68 132.676 135.632 132.371 136.515C132.133 137.229 131.454 137.671 130.74 137.671Z" fill="white"/>
<path d="M130.739 137.67C130.026 137.67 129.346 137.228 129.109 136.48C128.803 135.596 129.312 134.645 130.195 134.339L133.727 133.183C134.61 132.877 135.561 133.387 135.867 134.271C136.172 135.155 135.663 136.106 134.78 136.412L131.248 137.568C131.078 137.636 130.909 137.67 130.739 137.67Z" fill="white"/>
<path d="M128.565 140.695C128.226 140.695 127.886 140.593 127.581 140.355C126.834 139.812 126.664 138.724 127.207 137.976L129.381 134.95C129.924 134.203 131.011 134.033 131.758 134.577C132.505 135.12 132.675 136.208 132.131 136.956L129.958 139.982C129.584 140.457 129.075 140.695 128.565 140.695Z" fill="white"/>
<path d="M132.946 140.695C132.437 140.695 131.893 140.457 131.588 139.982L129.414 136.956C128.871 136.208 129.041 135.12 129.788 134.577C130.535 134.033 131.622 134.203 132.165 134.95L134.338 137.976C134.882 138.724 134.712 139.812 133.965 140.355C133.625 140.593 133.286 140.695 132.946 140.695Z" fill="white"/>
<path d="M145.885 137.67C144.935 137.67 144.188 136.922 144.188 135.97V132.231C144.188 131.279 144.935 130.531 145.885 130.531C146.836 130.531 147.583 131.279 147.583 132.231V135.97C147.583 136.922 146.836 137.67 145.885 137.67Z" fill="white"/>
<path d="M145.885 137.671C145.715 137.671 145.545 137.637 145.376 137.603L141.844 136.447C140.961 136.142 140.451 135.19 140.757 134.306C141.063 133.422 142.014 132.912 142.897 133.218L146.428 134.374C147.311 134.68 147.821 135.632 147.515 136.515C147.277 137.229 146.598 137.671 145.885 137.671Z" fill="white"/>
<path d="M145.885 137.67C145.172 137.67 144.493 137.228 144.255 136.48C143.949 135.596 144.459 134.645 145.342 134.339L148.874 133.183C149.757 132.877 150.707 133.387 151.013 134.271C151.319 135.155 150.809 136.106 149.926 136.412L146.395 137.568C146.225 137.636 146.055 137.67 145.885 137.67Z" fill="white"/>
<path d="M143.679 140.695C143.339 140.695 143 140.593 142.694 140.355C141.947 139.812 141.777 138.724 142.32 137.976L144.494 134.95C145.037 134.203 146.124 134.033 146.871 134.577C147.618 135.12 147.788 136.208 147.245 136.956L145.071 139.982C144.732 140.457 144.222 140.695 143.679 140.695Z" fill="white"/>
<path d="M148.092 140.695C147.583 140.695 147.04 140.457 146.734 139.982L144.561 136.956C144.017 136.208 144.187 135.12 144.934 134.577C145.681 134.033 146.768 134.203 147.311 134.95L149.485 137.976C150.028 138.724 149.858 139.812 149.111 140.355C148.772 140.593 148.432 140.695 148.092 140.695Z" fill="white"/>
<path d="M161.032 137.67C160.081 137.67 159.334 136.922 159.334 135.97V132.231C159.334 131.279 160.081 130.531 161.032 130.531C161.983 130.531 162.73 131.279 162.73 132.231V135.97C162.73 136.922 161.983 137.67 161.032 137.67Z" fill="white"/>
<path d="M161.031 137.671C160.862 137.671 160.692 137.637 160.522 137.603L156.99 136.447C156.107 136.142 155.598 135.19 155.904 134.306C156.209 133.422 157.16 132.912 158.043 133.218L161.575 134.374C162.458 134.68 162.967 135.632 162.662 136.515C162.424 137.229 161.745 137.671 161.031 137.671Z" fill="white"/>
<path d="M161.032 137.67C160.319 137.67 159.639 137.228 159.402 136.48C159.096 135.596 159.605 134.645 160.488 134.339L164.02 133.183C164.903 132.877 165.854 133.387 166.16 134.271C166.465 135.155 165.956 136.106 165.073 136.412L161.541 137.568C161.371 137.636 161.201 137.67 161.032 137.67Z" fill="white"/>
<path d="M158.823 140.695C158.484 140.695 158.144 140.593 157.838 140.355C157.091 139.812 156.922 138.724 157.465 137.976L159.638 134.95C160.182 134.203 161.268 134.033 162.016 134.577C162.763 135.12 162.932 136.208 162.389 136.956L160.216 139.982C159.876 140.457 159.367 140.695 158.823 140.695Z" fill="white"/>
<path d="M163.206 140.695C162.696 140.695 162.153 140.457 161.847 139.982L159.674 136.956C159.131 136.208 159.3 135.12 160.047 134.577C160.795 134.033 161.881 134.203 162.425 134.95L164.598 137.976C165.141 138.724 164.972 139.812 164.225 140.355C163.919 140.593 163.579 140.695 163.206 140.695Z" fill="white"/>
<path opacity="0.2" d="M105.066 59.0781H126.97V69.3441H105.066V59.0781Z" fill="#25A4AD"/>
<path d="M151.863 11.0122V57.379C151.863 58.3309 151.116 59.0787 150.165 59.0787H81.8386C80.8877 59.0787 80.1406 58.3309 80.1406 57.379V11.0122C80.1406 10.0604 80.8877 9.3125 81.8386 9.3125H150.199C151.116 9.3125 151.863 10.0943 151.863 11.0122Z" fill="#DDF2ED"/>
<path d="M143.407 44.4279H124.661C123.71 44.4279 122.963 43.68 122.963 42.7282V17.3012C122.963 16.3494 123.71 15.6016 124.661 15.6016H143.407C144.357 15.6016 145.105 16.3494 145.105 17.3012V42.7282C145.105 43.646 144.357 44.4279 143.407 44.4279Z" fill="white"/>
<path opacity="0.2" d="M131.35 24.9841C130.399 24.9841 129.652 24.2363 129.652 23.2844V23.2504C129.652 22.2986 130.399 21.5508 131.35 21.5508C132.301 21.5508 133.048 22.2986 133.048 23.2504V23.2844C133.048 24.2363 132.301 24.9841 131.35 24.9841Z" fill="#25A4AD"/>
<path opacity="0.2" d="M136.718 24.9841C135.767 24.9841 135.02 24.2363 135.02 23.2844V23.2504C135.02 22.2986 135.767 21.5508 136.718 21.5508C137.668 21.5508 138.415 22.2986 138.415 23.2504V23.2844C138.415 24.2363 137.668 24.9841 136.718 24.9841Z" fill="#25A4AD"/>
<path opacity="0.2" d="M139.027 32.7001H129.077C128.126 32.7001 127.379 31.9523 127.379 31.0004C127.379 30.0486 128.126 29.3008 129.077 29.3008H139.027C139.978 29.3008 140.725 30.0486 140.725 31.0004C140.725 31.9523 139.944 32.7001 139.027 32.7001Z" fill="#25A4AD"/>
<path opacity="0.2" d="M139.027 38.4462H129.077C128.126 38.4462 127.379 37.6984 127.379 36.7465C127.379 35.7947 128.126 35.0469 129.077 35.0469H139.027C139.978 35.0469 140.725 35.7947 140.725 36.7465C140.725 37.6984 139.944 38.4462 139.027 38.4462Z" fill="#25A4AD"/>
<path opacity="0.2" d="M150.165 59.0778H81.8386C80.8877 59.0778 80.1406 58.3299 80.1406 57.3781V49.9336H151.897V57.3781C151.863 58.3299 151.116 59.0778 150.165 59.0778Z" fill="#25A4AD"/>
<g filter="url(#filter2_b_2556_142076)">
<path d="M51.0371 91.2707C51.0371 100.381 58.4064 107.791 67.5415 107.791H164.462C173.564 107.791 180.967 100.415 180.967 91.2707C180.967 82.1605 173.598 74.75 164.462 74.75H67.5415C58.4403 74.75 51.0371 82.1605 51.0371 91.2707Z" fill="#EDFAED" fill-opacity="0.5"/>
</g>
<path d="M164.86 117.195L164.533 117.877L165.288 117.911C174.668 118.341 182.163 126.111 182.13 135.562V135.564C182.13 145.35 174.17 153.284 164.428 153.284H67.5071C57.7322 153.284 49.8047 145.317 49.8047 135.564C49.8047 126.076 57.3023 118.307 66.681 117.877L67.4362 117.843L67.1087 117.161C65.8338 114.508 64.8618 111.756 64.2252 108.939L64.1546 108.626L63.8408 108.56C55.8502 106.874 49.8386 99.7331 49.8386 91.2368C49.8386 83.0728 55.42 76.1618 62.95 74.1452L63.3206 74.046V73.6623V21.6525C63.3206 19.1067 65.3725 17.0535 67.9146 17.0535H78.4421H78.9421V16.5535V11.0126C78.9421 9.41866 80.2469 8.11328 81.838 8.11328H150.165C151.756 8.11328 153.061 9.41866 153.061 11.0126V16.5875V17.0875H153.561H164.088C166.63 17.0875 168.682 19.1407 168.682 21.6865V64.1102C168.682 64.7863 168.159 65.3098 167.484 65.3098C166.81 65.3098 166.286 64.7863 166.286 64.1102V21.6865C166.286 20.459 165.316 19.4868 164.088 19.4868H153.561H153.061V19.9868V57.3795C153.061 58.9734 151.756 60.2788 150.165 60.2788H128.634H128.134V60.7788V68.8012V68.9519L128.218 69.0776L130.833 73.0208L130.833 73.0216C130.911 73.1387 130.936 73.1824 130.945 73.2084L131.059 73.5504H131.419H164.428C174.203 73.5504 182.13 81.5179 182.13 91.2708C182.13 99.7671 176.119 106.908 168.128 108.594L167.814 108.66L167.744 108.973C167.107 111.79 166.135 114.542 164.86 117.195ZM105.949 70.5448H105.684L105.535 70.7644L104.177 72.77L103.648 73.5504H104.591H127.378H128.32L127.792 72.77L126.434 70.7644L126.285 70.5448H126.02H105.949ZM125.239 68.1455H125.739V67.6455V60.8128V60.3128H125.239H106.73H106.23V60.8128V67.6455V68.1455H106.73H125.239ZM81.838 10.5126H81.338V11.0126V57.3795V57.8795H81.838H150.199H150.699V57.3795V11.0126V10.5126H150.199H81.838ZM78.9421 19.9868V19.4868H78.4421H67.9146C66.6871 19.4868 65.7166 20.459 65.7166 21.6865V73.1184V73.6584L66.255 73.6169C66.6997 73.5827 67.122 73.5504 67.541 73.5504H100.55H100.91L101.024 73.2084C101.033 73.1825 101.058 73.1389 101.135 73.0224C101.135 73.0221 101.136 73.0219 101.136 73.0216L103.784 69.08L103.868 68.9536V68.8012V60.7788V60.2788H103.368H81.838C80.2469 60.2788 78.9421 58.9734 78.9421 57.3795V19.9868ZM70.0567 117.617L70.1989 117.878H70.4955H91.992C92.6663 117.878 93.19 118.401 93.19 119.077C93.19 119.753 92.6663 120.277 91.992 120.277H67.541C59.0801 120.277 52.2346 127.13 52.2346 135.598C52.2346 144.067 59.1148 150.919 67.541 150.919H164.462C172.888 150.919 179.768 144.067 179.768 135.598C179.768 127.129 172.888 120.277 164.462 120.277H102.689C102.015 120.277 101.491 119.753 101.491 119.077C101.491 118.401 102.015 117.878 102.689 117.878H161.507H161.804L161.946 117.617C163.358 115.033 164.426 112.343 165.149 109.584L165.314 108.957H164.666H164.665H164.665H164.664H164.664H164.664H164.663H164.663H164.662H164.662H164.662H164.661H164.661H164.66H164.66H164.66H164.659H164.659H164.659H164.658H164.658H164.657H164.657H164.657H164.656H164.656H164.655H164.655H164.655H164.654H164.654H164.653H164.653H164.653H164.652H164.652H164.651H164.651H164.651H164.65H164.65H164.649H164.649H164.649H164.648H164.648H164.647H164.647H164.647H164.646H164.646H164.645H164.645H164.645H164.644H164.644H164.643H164.643H164.643H164.642H164.642H164.641H164.641H164.641H164.64H164.64H164.639H164.639H164.639H164.638H164.638H164.637H164.637H164.637H164.636H164.636H164.635H164.635H164.635H164.634H164.634H164.633H164.633H164.633H164.632H164.632H164.631H164.631H164.631H164.63H164.63H164.629H164.629H164.629H164.628H164.628H164.627H164.627H164.627H164.626H164.626H164.625H164.625H164.625H164.624H164.624H164.623H164.623H164.623H164.622H164.622H164.621H164.621H164.621H164.62H164.62H164.619H164.619H164.619H164.618H164.618H164.618H164.617H164.617H164.616H164.616H164.616H164.615H164.615H164.614H164.614H164.614H164.613H164.613H164.612H164.612H164.612H164.611H164.611H164.61H164.61H164.61H164.609H164.609H164.608H164.608H164.608H164.607H164.607H164.606H164.606H164.606H164.605H164.605H164.604H164.604H164.604H164.603H164.603H164.602H164.602H164.602H164.601H164.601H164.6H164.6H164.6H164.599H164.599H164.598H164.598H164.598H164.597H164.597H164.596H164.596H164.596H164.595H164.595H164.594H164.594H164.594H164.593H164.593H164.592H164.592H164.592H164.591H164.591H164.59H164.59H164.59H164.589H164.589H164.588H164.588H164.588H164.587H164.587H164.586H164.586H164.586H164.585H164.585H164.584H164.584H164.584H164.583H164.583H164.582H164.582H164.582H164.581H164.581H164.581H164.58H164.58H164.579H164.579H164.579H164.578H164.578H164.577H164.577H164.577H164.576H164.576H164.575H164.575H164.575H164.574H164.574H164.573H164.573H164.573H164.572H164.572H164.571H164.571H164.571H164.57H164.57H164.569H164.569H164.569H164.568H164.568H164.567H164.567H164.567H164.566H164.566H164.565H164.565H164.565H164.564H164.564H164.563H164.563H164.563H164.562H164.562H164.561H164.561H164.561H164.56H164.56H164.559H164.559H164.559H164.558H164.558H164.557H164.557H164.557H164.556H164.556H164.555H164.555H164.555H164.554H164.554H164.553H164.553H164.553H164.552H164.552H164.551H164.551H164.551H164.55H164.55H164.549H164.549H164.549H164.548H164.548H164.547H164.547H164.547H164.546H164.546H164.545H164.545H164.545H164.544H164.544H164.543H164.543H164.543H164.542H164.542H164.542H164.541H164.541H164.54H164.54H164.54H164.539H164.539H164.538H164.538H164.538H164.537H164.537H164.536H164.536H164.536H164.535H164.535H164.534H164.534H164.534H164.533H164.533H164.532H164.532H164.532H164.531H164.531H164.53H164.53H164.53H164.529H164.529H164.528H164.528H164.528H164.527H164.527H164.526H164.526H164.526H164.525H164.525H164.524H164.524H164.524H164.523H164.523H164.522H164.522H164.522H164.521H164.521H164.52H164.52H164.52H164.519H164.519H164.518H164.518H164.518H164.517H164.517H164.516H164.516H164.516H164.515H164.515H164.514H164.514H164.514H164.513H164.513H164.512H164.512H164.512H164.511H164.511H164.51H164.51H164.51H164.509H164.509H164.508H164.508H164.508H164.507H164.507H164.506H164.506H164.506H164.505H164.505H164.504H164.504H164.504H164.503H164.503H164.503H164.502H164.502H164.501H164.501H164.501H164.5H164.5H164.499H164.499H164.499H164.498H164.498H164.497H164.497H164.497H164.496H164.496H164.495H164.495H164.495H164.494H164.494H164.493H164.493H164.493H164.492H164.492H164.491H164.491H164.491H164.49H164.49H164.489H164.489H164.489H164.488H164.488H164.487H164.487H164.487H164.486H164.486H164.485H164.485H164.485H164.484H164.484H164.483H164.483H164.483H164.482H164.482H164.481H164.481H164.481H164.48H164.48H164.479H164.479H164.479H164.478H164.478H164.477H164.477H164.477H164.476H164.476H164.475H164.475H164.475H164.474H164.474H164.473H164.473H164.473H164.472H164.472H164.471H164.471H164.471H164.47H164.47H164.469H164.469H164.469H164.468H164.468H164.467H164.467H164.467H164.466H164.466H164.465H164.465H164.465H164.464H164.464H164.464H164.463H164.463H164.462H164.462H67.541H67.5406H67.5402H67.5398H67.5394H67.539H67.5386H67.5382H67.5378H67.5374H67.5371H67.5367H67.5363H67.5359H67.5355H67.5351H67.5347H67.5343H67.5339H67.5335H67.5331H67.5327H67.5323H67.5319H67.5315H67.5311H67.5307H67.5303H67.5299H67.5295H67.5291H67.5287H67.5283H67.5279H67.5275H67.5271H67.5267H67.5263H67.5259H67.5255H67.5251H67.5247H67.5243H67.5239H67.5235H67.5231H67.5227H67.5223H67.5219H67.5215H67.5211H67.5207H67.5203H67.5199H67.5195H67.5191H67.5187H67.5183H67.5179H67.5175H67.5172H67.5168H67.5164H67.516H67.5156H67.5152H67.5148H67.5144H67.514H67.5136H67.5132H67.5128H67.5124H67.512H67.5116H67.5112H67.5108H67.5104H67.51H67.5096H67.5092H67.5088H67.5084H67.508H67.5076H67.5072H67.5068H67.5064H67.506H67.5056H67.5052H67.5048H67.5044H67.504H67.5036H67.5032H67.5028H67.5024H67.502H67.5016H67.5012H67.5008H67.5004H67.5H67.4996H67.4992H67.4988H67.4984H67.498H67.4977H67.4973H67.4969H67.4965H67.4961H67.4957H67.4953H67.4949H67.4945H67.4941H67.4937H67.4933H67.4929H67.4925H67.4921H67.4917H67.4913H67.4909H67.4905H67.4901H67.4897H67.4893H67.4889H67.4885H67.4881H67.4877H67.4873H67.4869H67.4865H67.4861H67.4857H67.4853H67.4849H67.4845H67.4841H67.4837H67.4833H67.4829H67.4825H67.4821H67.4817H67.4813H67.4809H67.4805H67.4801H67.4797H67.4793H67.4789H67.4785H67.4781H67.4778H67.4774H67.477H67.4766H67.4762H67.4758H67.4754H67.475H67.4746H67.4742H67.4738H67.4734H67.473H67.4726H67.4722H67.4718H67.4714H67.471H67.4706H67.4702H67.4698H67.4694H67.469H67.4686H67.4682H67.4678H67.4674H67.467H67.4666H67.4662H67.4658H67.4654H67.465H67.4646H67.4642H67.4638H67.4634H67.463H67.4626H67.4622H67.4618H67.4614H67.461H67.4606H67.4602H67.4598H67.4594H67.459H67.4586H67.4583H67.4579H67.4575H67.4571H67.4567H67.4563H67.4559H67.4555H67.4551H67.4547H67.4543H67.4539H67.4535H67.4531H67.4527H67.4523H67.4519H67.4515H67.4511H67.4507H67.4503H67.4499H67.4495H67.4491H67.4487H67.4483H67.4479H67.4475H67.4471H67.4467H67.4463H67.4459H67.4455H67.4451H67.4447H67.4443H67.4439H67.4435H67.4431H67.4427H67.4423H67.4419H67.4415H67.4411H67.4407H67.4403H67.4399H67.4395H67.4391H67.4388H67.4384H67.438H67.4376H67.4372H67.4368H67.4364H67.436H67.4356H67.4352H67.4348H67.4344H67.434H67.4336H67.4332H67.4328H67.4324H67.432H67.4316H67.4312H67.4308H67.4304H67.43H67.4296H67.4292H67.4288H67.4284H67.428H67.4276H67.4272H67.4268H67.4264H67.426H67.4256H67.4252H67.4248H67.4244H67.424H67.4236H67.4232H67.4228H67.4224H67.422H67.4216H67.4212H67.4208H67.4204H67.42H67.4196H67.4193H67.4189H67.4185H67.4181H67.4177H67.4173H67.4169H67.4165H67.4161H67.4157H67.4153H67.4149H67.4145H67.4141H67.4137H67.4133H67.4129H67.4125H67.4121H67.4117H67.4113H67.4109H67.4105H67.4101H67.4097H67.4093H67.4089H67.4085H67.4081H67.4077H67.4073H67.4069H67.4065H67.4061H67.4057H67.4053H67.4049H67.4045H67.4041H67.4037H67.4033H67.4029H67.4025H67.4021H67.4017H67.4013H67.4009H67.4005H67.4001H67.3997H67.3994H67.399H67.3986H67.3982H67.3978H67.3974H67.397H67.3966H67.3962H67.3958H67.3954H67.395H67.3946H67.3942H67.3938H67.3934H67.393H67.3926H67.3922H67.3918H67.3914H67.391H67.3906H67.3902H67.3898H67.3894H67.389H67.3886H67.3882H67.3878H67.3874H67.387H67.3866H67.3862H67.3858H67.3854H67.385H67.3846H67.3842H67.3838H67.3834H67.383H67.3826H67.3822H67.3818H67.3814H67.381H67.3806H67.3802H67.3799H67.3795H67.3791H67.3787H67.3783H67.3779H67.3775H67.3771H67.3767H67.3763H67.3759H67.3755H67.3751H67.3747H67.3743H67.3739H67.3735H67.3731H67.3727H67.3723H67.3719H67.3715H67.3711H67.3707H67.3703H67.3699H67.3695H67.3691H67.3687H67.3683H67.3679H67.3675H67.3671H67.3667H67.3663H67.3659H67.3655H67.3651H67.3647H67.3643H67.3639H67.3635H67.3631H67.3627H67.3623H67.3619H67.3615H67.3611H67.3607H67.3604H67.36H67.3596H67.3592H67.3588H67.3584H67.358H67.3576H67.3572H67.3568H67.3564H67.356H67.3556H67.3552H67.3548H67.3544H67.354H67.3536H67.3532H67.3528H67.3524H67.352H67.3516H67.3512H67.3508H67.3504H67.35H67.3496H67.3492H67.3488H67.3484H67.348H67.3476H67.3472H67.3468H67.3464H67.346H67.3456H67.3452H67.3448H67.3444H67.344H67.3436H67.3432H67.3428H67.3424H67.342H67.3416H67.3412H67.3409H67.3405H67.3401H67.3397H67.3393H67.3389H67.3385H67.3381H67.3377H67.3373H66.6892L66.8536 109.584C67.5772 112.343 68.6452 115.033 70.0567 117.617ZM67.541 75.9497C59.0794 75.9497 52.2346 82.8375 52.2346 91.2708C52.2346 99.7049 59.1141 106.592 67.541 106.592H164.462C172.923 106.592 179.768 99.7389 179.768 91.2708C179.768 82.802 172.888 75.9497 164.462 75.9497H67.541Z" fill="#25A4AD" stroke="#DDF2ED"/>
<path d="M86.3923 100.145C85.3851 100.145 84.5801 99.3384 84.5801 98.2762C84.5801 96.3057 82.9804 94.6487 81.028 94.6487C79.0757 94.6487 77.4759 96.3057 77.4759 98.2762C77.4759 99.3384 76.671 100.145 75.6638 100.145C74.6565 100.145 73.8516 99.3384 73.8516 98.2762C73.8516 94.1833 77.1055 90.9102 81.028 90.9102C84.9487 90.9102 88.2045 94.2287 88.2045 98.2762C88.2045 99.3384 87.3996 100.145 86.3923 100.145Z" fill="#25A4AD" stroke="#DDF2ED"/>
<path d="M80.6021 92.4699C77.3349 92.4699 74.7051 89.8055 74.7051 86.5728C74.7051 83.3056 77.3695 80.6758 80.6021 80.6758C83.8328 80.6758 86.4992 83.3422 86.4992 86.5728C86.4992 89.8035 83.8328 92.4699 80.6021 92.4699ZM80.6021 83.5294C78.9387 83.5294 77.5587 84.9094 77.5587 86.5728C77.5587 88.2363 78.9387 89.6162 80.6021 89.6162C82.2656 89.6162 83.6455 88.2363 83.6455 86.5728C83.6455 84.9094 82.2656 83.5294 80.6021 83.5294Z" fill="#25A4AD" stroke="#DDF2ED"/>
<path d="M101.569 87.0556H96.9167C95.9659 87.0556 95.2188 86.3077 95.2188 85.3559C95.2188 84.4041 95.9659 83.6562 96.9167 83.6562H101.569C102.52 83.6562 103.267 84.4041 103.267 85.3559C103.267 86.3077 102.52 87.0556 101.569 87.0556Z" fill="white"/>
<path d="M101.569 98.8837H96.9167C95.9659 98.8837 95.2188 98.1359 95.2188 97.184C95.2188 96.2322 95.9659 95.4844 96.9167 95.4844H101.569C102.52 95.4844 103.267 96.2322 103.267 97.184C103.267 98.1359 102.52 98.8837 101.569 98.8837Z" fill="white"/>
<path d="M128.974 98.8837H122.555C121.605 98.8837 120.857 98.1359 120.857 97.184C120.857 96.2322 121.605 95.4844 122.555 95.4844H128.974C129.925 95.4844 130.672 96.2322 130.672 97.184C130.672 98.1359 129.925 98.8837 128.974 98.8837Z" fill="white"/>
<path d="M99.2253 98.8852C98.2745 98.8852 97.5273 98.1374 97.5273 97.1856V85.3559C97.5273 84.4041 98.2745 83.6562 99.2253 83.6562C100.176 83.6562 100.923 84.4041 100.923 85.3559V97.1856C100.923 98.1374 100.176 98.8852 99.2253 98.8852Z" fill="white"/>
<path d="M112.877 98.8852H108.53C107.579 98.8852 106.832 98.1374 106.832 97.1856V85.3559C106.832 84.4041 107.579 83.6562 108.53 83.6562H112.877C115.696 83.6562 117.971 85.9338 117.971 88.7552V93.7863C117.971 96.6077 115.696 98.8852 112.877 98.8852ZM110.194 95.4859H112.843C113.794 95.4859 114.541 94.7041 114.541 93.7863V88.7552C114.541 87.8034 113.76 87.0556 112.843 87.0556H110.194V95.4859Z" fill="white"/>
<path opacity="0.2" d="M166.262 10.5379C165.311 10.5379 164.564 9.79007 164.564 8.83826C164.564 7.81846 163.715 6.96863 162.696 6.96863C161.745 6.96863 160.998 6.22078 160.998 5.26896C160.998 4.31715 161.745 3.5693 162.696 3.5693C163.715 3.5693 164.564 2.71946 164.564 1.69967C164.564 0.747853 165.311 0 166.262 0C167.213 0 167.96 0.747853 167.96 1.69967C167.96 2.71946 168.809 3.5693 169.828 3.5693C170.778 3.5693 171.526 4.31715 171.526 5.26896C171.526 6.22078 170.778 6.96863 169.828 6.96863C168.809 6.96863 167.96 7.81846 167.96 8.83826C167.96 9.79007 167.213 10.5379 166.262 10.5379Z" fill="#25A4AD"/>
<path opacity="0.2" d="M183.481 69.4832C182.53 69.4832 181.783 68.7354 181.783 67.7836C181.783 66.7638 180.934 65.9139 179.915 65.9139C178.964 65.9139 178.217 65.1661 178.217 64.2143C178.217 63.2625 178.964 62.5146 179.915 62.5146C180.934 62.5146 181.783 61.6648 181.783 60.645C181.783 59.6932 182.53 58.9453 183.481 58.9453C184.431 58.9453 185.179 59.6932 185.179 60.645C185.179 61.6648 186.028 62.5146 187.046 62.5146C187.997 62.5146 188.744 63.2625 188.744 64.2143C188.744 65.1661 187.997 65.9139 187.046 65.9139C186.028 65.9139 185.179 66.7638 185.179 67.7836C185.179 68.7354 184.431 69.4832 183.481 69.4832Z" fill="#25A4AD"/>
<path opacity="0.2" d="M52.0899 65.5731C51.1391 65.5731 50.3919 64.8252 50.3919 63.8734C50.3919 62.8536 49.5429 62.0038 48.5242 62.0038C47.5733 62.0038 46.8262 61.2559 46.8262 60.3041C46.8262 59.3523 47.5733 58.6045 48.5242 58.6045C49.5429 58.6045 50.3919 57.7546 50.3919 56.7348C50.3919 55.783 51.1391 55.0352 52.0899 55.0352C53.0408 55.0352 53.7879 55.783 53.7879 56.7348C53.7879 57.7546 54.6369 58.6045 55.6557 58.6045C56.6066 58.6045 57.3537 59.3523 57.3537 60.3041C57.3537 61.2559 56.6066 62.0038 55.6557 62.0038C54.6369 62.0038 53.7879 62.8536 53.7879 63.8734C53.7879 64.7912 53.0068 65.5731 52.0899 65.5731Z" fill="#25A4AD"/>
<path opacity="0.2" d="M187.012 122.512C186.571 122.512 186.129 122.342 185.824 122.002C185.145 121.323 185.145 120.269 185.824 119.589L189.22 116.19C189.899 115.51 190.952 115.51 191.631 116.19C192.31 116.869 192.31 117.923 191.631 118.603L188.235 122.002C187.895 122.342 187.454 122.512 187.012 122.512Z" fill="#25A4AD"/>
<path opacity="0.2" d="M50.3913 45.0748C49.9499 45.0748 49.5084 44.9049 49.2028 44.5649C48.5236 43.8851 48.5236 42.8313 49.2028 42.1514L52.5987 38.7521C53.2779 38.0722 54.3307 38.0722 55.0099 38.7521C55.6891 39.432 55.6891 40.4857 55.0099 41.1656L51.6139 44.5649C51.2403 44.9049 50.7989 45.0748 50.3913 45.0748Z" fill="#25A4AD"/>
<defs>
<filter id="filter0_b_2556_142076" x="-10" y="6.20703" width="252" height="147.09" filterUnits="userSpaceOnUse" color-interpolation-filters="sRGB">
<feFlood flood-opacity="0" result="BackgroundImageFix"/>
<feGaussianBlur in="BackgroundImage" stdDeviation="5"/>
<feComposite in2="SourceAlpha" operator="in" result="effect1_backgroundBlur_2556_142076"/>
<feBlend mode="normal" in="SourceGraphic" in2="effect1_backgroundBlur_2556_142076" result="shape"/>
</filter>
<filter id="filter1_b_2556_142076" x="41.0371" y="109.078" width="149.93" height="53.043" filterUnits="userSpaceOnUse" color-interpolation-filters="sRGB">
<feFlood flood-opacity="0" result="BackgroundImageFix"/>
<feGaussianBlur in="BackgroundImage" stdDeviation="5"/>
<feComposite in2="SourceAlpha" operator="in" result="effect1_backgroundBlur_2556_142076"/>
<feBlend mode="normal" in="SourceGraphic" in2="effect1_backgroundBlur_2556_142076" result="shape"/>
</filter>
<filter id="filter2_b_2556_142076" x="44.0371" y="67.75" width="143.93" height="47.043" filterUnits="userSpaceOnUse" color-interpolation-filters="sRGB">
<feFlood flood-opacity="0" result="BackgroundImageFix"/>
<feGaussianBlur in="BackgroundImage" stdDeviation="3.5"/>
<feComposite in2="SourceAlpha" operator="in" result="effect1_backgroundBlur_2556_142076"/>
<feBlend mode="normal" in="SourceGraphic" in2="effect1_backgroundBlur_2556_142076" result="shape"/>
</filter>
</defs>
</svg>
